<?xml version="1.0" standalone="no"?>
<!DOCTYPE svg PUBLIC "-//W3C//DTD SVG 20010904//EN"
 "http://www.w3.org/TR/2001/REC-SVG-20010904/DTD/svg10.dtd">
<svg version="1.0" xmlns="http://www.w3.org/2000/svg"
 width="250.000000pt" height="100.000000pt" viewBox="0 0 250.000000 100.000000"
 preserveAspectRatio="xMidYMid meet">
<metadata>
Created by potrace 1.16, written by Peter Selinger 2001-2019
</metadata>
<g transform="translate(0.000000,100.000000) scale(0.003501,-0.004134)"
fill="#000000" stroke="none">
<path d="M31565 24159 c-139 -18 -232 -34 -234 -41 -6 -18 -155 -180 -282
-307 -186 -186 -337 -323 -439 -396 -52 -38 -157 -115 -233 -172 -75 -57 -189
-135 -252 -173 -63 -38 -154 -96 -202 -128 -105 -70 -489 -282 -588 -324 -38
-17 -94 -40 -123 -53 -29 -12 -63 -31 -75 -42 -12 -11 -50 -30 -84 -41 -34
-11 -88 -38 -120 -59 -32 -22 -72 -45 -89 -50 -17 -6 -119 -69 -226 -141 -106
-71 -212 -139 -233 -150 -22 -11 -49 -30 -60 -42 -11 -12 -81 -65 -155 -118
-74 -53 -174 -132 -221 -177 -113 -105 -200 -180 -274 -237 -114 -88 -443
-434 -562 -593 -50 -66 -103 -131 -118 -145 -54 -49 -177 -222 -236 -332 -34
-62 -82 -142 -107 -178 -64 -88 -105 -156 -126 -210 -10 -25 -35 -76 -56 -115
-39 -70 -138 -312 -190 -460 -16 -44 -53 -147 -83 -230 -30 -82 -57 -172 -61
-198 -4 -26 -16 -73 -27 -105 -23 -66 -42 -166 -104 -568 l-45 -291 0 -461 c0
-431 2 -471 24 -639 14 -98 36 -275 51 -393 21 -170 40 -269 90 -470 35 -140
80 -327 100 -415 41 -177 216 -710 287 -875 25 -58 53 -130 63 -160 9 -30 44
-125 78 -210 73 -187 471 -986 495 -995 9 -3 26 -19 37 -35 80 -117 128 -170
326 -367 123 -122 251 -243 284 -269 33 -26 94 -80 136 -120 42 -39 112 -95
155 -124 43 -30 113 -79 154 -110 41 -31 143 -103 225 -160 83 -57 193 -134
245 -170 52 -37 138 -89 190 -115 52 -26 163 -88 245 -138 83 -50 202 -114
265 -143 63 -28 215 -101 336 -162 303 -150 836 -362 1064 -423 63 -17 162
-49 220 -70 58 -22 166 -55 240 -74 74 -19 188 -52 253 -74 135 -46 378 -102
550 -127 101 -15 117 -20 117 -36 0 -10 4 -26 10 -36 54 -99 77 -308 52 -467
-6 -38 -15 -97 -20 -130 -4 -33 -16 -74 -25 -91 -9 -17 -21 -53 -28 -80 -19
-74 -141 -321 -245 -495 -74 -124 -116 -180 -206 -279 -195 -215 -680 -699
-753 -753 -38 -28 -107 -84 -152 -123 -45 -40 -124 -101 -175 -135 -51 -34
-139 -98 -195 -141 -56 -43 -202 -142 -325 -221 -123 -78 -284 -185 -358 -238
-127 -91 -558 -344 -807 -475 -111 -58 -113 -59 -113 -95 0 -24 7 -42 21 -55
12 -10 40 -46 62 -79 22 -33 94 -115 159 -183 65 -67 118 -127 118 -132 0 -5
61 -51 136 -101 110 -73 161 -100 267 -140 248 -94 362 -131 487 -155 111 -21
151 -24 375 -24 l251 0 164 -167 c273 -278 399 -472 480 -739 24 -80 30 -120
30 -189 l0 -88 61 7 c67 7 294 74 374 111 28 12 66 26 85 30 46 10 463 176
548 219 37 18 92 41 122 51 30 10 143 62 250 115 108 54 224 110 260 125 35
15 91 45 124 67 32 23 96 57 140 76 45 19 123 60 174 91 156 95 670 455 792
555 41 34 104 83 140 108 83 60 566 546 697 703 246 294 521 736 612 983 16
44 47 115 69 158 44 89 103 261 127 376 17 79 17 138 -3 383 -7 93 -39 256
-82 420 -38 144 -180 535 -233 640 -75 150 -213 388 -335 578 -130 201 -161
244 -298 404 -62 72 -149 178 -192 235 -44 56 -99 119 -123 138 -24 19 -102
91 -174 160 -161 155 -265 247 -376 333 -47 36 -128 104 -180 149 -52 46 -143
115 -204 153 -60 39 -157 108 -215 154 -58 45 -114 87 -125 91 -11 5 -54 43
-95 85 -41 43 -104 97 -140 120 -36 24 -74 53 -85 65 -27 30 -276 217 -345
259 -30 19 -75 50 -100 71 -66 54 -156 113 -230 150 -36 18 -101 58 -145 90
-85 60 -194 124 -312 184 -40 20 -137 74 -215 121 -79 47 -188 107 -243 133
-55 26 -145 71 -200 100 -55 29 -145 74 -200 99 -55 26 -154 75 -220 109 -192
100 -229 118 -450 225 -115 55 -268 123 -340 151 -71 27 -202 83 -290 123
-224 102 -449 195 -592 246 l-123 43 0 37 c0 20 7 42 15 49 8 7 15 26 15 42 0
16 16 75 36 131 19 56 48 147 64 202 29 104 99 272 142 340 14 22 33 62 43 89
25 67 126 234 275 456 159 238 518 670 686 826 65 60 167 157 228 215 135 129
400 360 516 450 148 114 506 361 753 518 131 83 290 186 355 229 64 43 189
118 277 167 88 48 223 124 300 168 77 45 192 108 255 142 179 96 369 199 430
234 30 17 64 31 75 30 18 0 17 -2 -8 -22 -16 -12 -49 -41 -75 -63 -26 -23 -61
-49 -79 -58 -17 -8 -57 -38 -88 -65 -31 -27 -76 -56 -100 -64 -47 -16 -181
-102 -230 -147 -16 -16 -82 -62 -145 -103 -63 -41 -128 -86 -144 -99 -16 -12
-59 -39 -94 -58 -36 -19 -64 -39 -63 -45 1 -5 153 -56 339 -113 l337 -102 935
21 c640 14 939 24 948 31 11 9 12 68 8 307 -3 163 -9 337 -14 386 -14 129 -68
429 -91 500 -11 33 -25 88 -31 122 -15 86 -99 372 -155 529 -25 71 -84 206
-130 299 -46 94 -91 193 -101 220 -24 66 -119 232 -210 363 -40 59 -103 154
-140 212 -86 135 -284 398 -390 520 -135 155 -550 562 -672 658 -183 145 -303
263 -457 448 -80 96 -218 258 -308 361 -227 262 -298 359 -434 598 -83 145
-93 170 -93 240 l0 65 -47 -1 c-27 -1 -151 -14 -278 -30z"/>
<path d="M1360 23099 c-232 -75 -279 -88 -305 -80 -16 5 -55 13 -85 16 -30 4
-188 29 -350 57 -235 39 -328 50 -458 55 l-164 6 6 -174 c3 -96 10 -235 16
-309 5 -74 14 -216 20 -315 5 -99 14 -247 20 -330 6 -82 15 -213 21 -290 5
-77 14 -252 19 -390 5 -137 14 -322 20 -410 6 -88 15 -290 20 -450 6 -159 15
-414 21 -565 8 -225 29 -1487 30 -1795 0 -237 -22 -1302 -30 -1435 -5 -85 -14
-236 -20 -335 -6 -99 -17 -227 -25 -285 -9 -58 -16 -142 -16 -187 0 -83 -31
-314 -76 -574 l-25 -147 6 -483 c3 -266 9 -680 15 -919 5 -239 14 -678 20
-975 9 -512 17 -868 40 -1875 6 -239 15 -660 20 -935 6 -275 15 -705 20 -955
5 -250 12 -574 16 -720 5 -260 6 -265 28 -290 13 -14 27 -36 31 -50 4 -14 22
-41 40 -60 18 -19 48 -60 67 -90 20 -30 50 -68 68 -85 18 -16 58 -68 90 -115
171 -251 693 -817 985 -1069 186 -160 254 -213 485 -378 188 -133 268 -180
382 -223 48 -18 95 -41 104 -51 24 -27 96 -25 141 2 47 29 124 184 157 315 25
103 66 345 88 522 6 56 15 106 18 112 4 7 2152 110 2297 110 31 0 42 12 188
208 86 114 162 209 168 211 7 2 26 15 43 28 31 23 94 59 304 172 58 31 125 70
150 87 25 17 79 48 120 69 105 53 421 230 504 283 39 24 165 97 280 162 116
64 243 136 281 160 39 24 165 96 280 160 116 64 251 142 300 172 50 30 126 74
170 98 44 24 136 78 205 120 69 42 157 93 195 115 39 21 108 64 155 97 47 32
189 126 315 208 288 186 385 253 449 310 53 47 83 65 126 74 63 13 257 90 369
145 67 34 145 71 172 81 28 11 73 37 102 58 29 21 92 63 140 93 150 91 553
420 628 511 24 29 84 96 134 148 176 183 363 418 467 585 170 275 431 783 501
975 25 69 66 175 92 235 58 139 124 325 136 390 6 28 14 70 19 95 5 25 13 68
19 95 5 28 15 64 21 80 7 17 16 55 20 85 25 169 31 200 45 250 9 30 21 100 26
155 6 55 14 136 20 180 8 66 30 554 30 675 0 19 -4 154 -9 300 -8 209 -15 296
-36 415 -14 83 -26 187 -26 236 0 61 -6 103 -21 145 -11 32 -31 131 -45 219
-13 89 -42 223 -64 300 -22 77 -57 203 -76 280 -33 125 -87 273 -218 595 -24
58 -61 150 -82 205 -72 187 -238 509 -371 721 -28 45 -70 119 -93 165 -23 46
-70 115 -104 154 -33 38 -81 103 -105 143 -132 219 -752 964 -943 1132 -45 40
-130 119 -188 175 -58 56 -139 128 -180 159 -41 32 -118 100 -171 152 -53 52
-101 94 -106 94 -6 0 -27 19 -47 43 -50 58 -57 65 -127 122 -34 28 -103 89
-153 136 -50 47 -113 101 -141 119 -27 18 -66 47 -85 65 -19 18 -55 43 -80 56
-25 14 -119 80 -209 148 -100 75 -265 184 -427 281 -145 88 -289 176 -321 198
-32 22 -119 70 -193 107 -74 37 -160 84 -190 105 -30 21 -120 65 -200 99 -80
34 -179 82 -220 105 -41 24 -136 69 -210 101 -74 32 -174 77 -222 101 -48 24
-134 61 -190 82 -57 22 -136 56 -176 76 -68 34 -190 79 -512 190 -69 24 -170
61 -225 83 -139 56 -289 104 -750 242 -494 147 -775 223 -925 251 -63 12 -167
34 -230 50 -63 16 -167 38 -230 50 -63 12 -176 36 -250 55 -74 18 -209 45
-300 59 -91 14 -264 41 -384 61 -121 19 -281 40 -355 45 -75 6 -193 20 -264
30 -70 11 -144 20 -165 19 -20 0 -161 -41 -312 -90z m3588 -2139 c120 -5 380
-27 622 -54 477 -53 470 -52 570 -76 41 -11 116 -24 165 -30 50 -7 126 -22
170 -35 44 -12 107 -26 140 -29 33 -4 90 -16 127 -27 36 -11 117 -28 180 -40
155 -28 413 -95 454 -118 35 -19 211 -143 284 -200 146 -112 448 -383 607
-543 200 -202 468 -516 557 -653 40 -60 113 -166 162 -235 93 -130 154 -229
221 -365 61 -121 226 -516 268 -640 20 -60 52 -153 70 -205 18 -52 38 -131 45
-175 6 -44 20 -109 30 -145 27 -92 79 -438 93 -610 15 -186 15 -732 0 -875 -6
-60 -21 -154 -32 -209 -12 -54 -21 -122 -21 -151 0 -29 -16 -115 -36 -192 -20
-76 -40 -163 -44 -193 -5 -30 -20 -88 -34 -129 -14 -41 -26 -84 -26 -95 0 -23
-22 -92 -33 -102 -4 -4 -7 -17 -7 -29 0 -27 -397 -651 -584 -920 -222 -317
-704 -930 -972 -1235 -229 -261 -386 -421 -862 -878 -105 -101 -226 -208 -269
-239 -43 -31 -107 -82 -143 -113 -36 -31 -99 -81 -140 -110 -41 -30 -100 -75
-130 -100 -30 -26 -89 -71 -130 -100 -41 -30 -106 -80 -145 -111 -38 -31 -99
-74 -135 -95 -36 -21 -151 -95 -256 -165 -105 -70 -224 -144 -265 -164 -41
-21 -99 -55 -129 -75 -30 -21 -102 -61 -160 -90 -98 -49 -142 -70 -398 -183
-54 -24 -116 -56 -140 -70 -58 -37 -334 -147 -410 -163 -34 -8 -80 -23 -101
-33 -21 -11 -75 -29 -121 -41 -46 -12 -97 -28 -114 -37 -49 -26 -178 -63 -217
-63 -20 0 -56 -7 -80 -16 -41 -15 -106 -28 -206 -41 -23 -3 -47 -11 -54 -19
-8 -10 -33 -14 -80 -14 l-69 0 6 198 c4 154 204 10773 204 10858 0 19 17 25
178 64 97 24 227 49 287 56 61 7 154 22 209 33 81 17 138 21 320 22 121 1 246
4 276 8 30 5 63 6 73 4 9 -3 111 -8 225 -13z"/>
<path d="M49280 22910 c-1926 -64 -3740 -784 -5215 -2071 -170 -148 -600 -577
-750 -749 -1209 -1383 -1909 -3044 -2055 -4880 -16 -206 -30 -909 -20 -1040
13 -173 48 -530 66 -665 153 -1193 561 -2329 1205 -3358 539 -861 1266 -1647
2089 -2259 1732 -1288 3872 -1847 6035 -1577 1133 141 2274 538 3249 1131 71
43 131 78 133 78 11 0 438 298 578 404 791 598 1478 1340 2007 2170 60 93 108
160 108 150 1 -36 431 822 533 1061 604 1421 801 2958 576 4505 -121 827 -380
1670 -741 2403 -62 126 -88 189 -88 215 0 29 -22 75 -96 202 -561 961 -1302
1842 -2067 2456 -172 138 -402 301 -567 402 -370 228 -469 287 -635 379 -1322
737 -2809 1094 -4345 1043z m930 -824 c475 -44 981 -134 1359 -243 l53 -15
-68 -41 c-84 -50 -251 -119 -484 -199 -241 -82 -359 -114 -544 -145 l-159 -26
-101 18 c-157 27 -328 80 -466 145 -69 32 -159 68 -200 79 -106 29 -396 85
-594 116 -155 24 -175 29 -235 64 -83 49 -195 105 -289 146 -64 28 -70 33 -49
39 73 18 515 64 762 80 153 9 850 -3 1015 -18z m-3280 -472 c0 -9 18 -58 39
-108 48 -112 67 -225 46 -266 -14 -27 -42 -43 -98 -56 -23 -5 -61 14 -243 122
l-215 129 63 29 c75 35 390 165 401 165 4 1 7 -6 7 -15z m-552 -244 c-16 -47
-94 -127 -152 -155 -34 -17 -82 -29 -142 -36 -49 -5 -107 -14 -129 -20 -22 -6
-49 -12 -60 -15 -11 -3 5 9 35 26 69 40 442 230 452 230 4 0 2 -14 -4 -30z
m-1137 -1326 c19 -23 13 -159 -11 -261 -11 -46 -20 -94 -20 -105 0 -11 -23
-71 -50 -134 -61 -138 -72 -197 -41 -236 23 -29 89 -48 169 -48 107 0 239 -56
357 -151 40 -33 75 -64 77 -69 2 -6 77 -35 168 -66 166 -55 393 -167 652 -318
l97 -57 55 -167 c82 -248 94 -372 47 -475 -36 -81 -57 -91 -392 -192 -208 -62
-271 -69 -549 -61 -323 9 -507 32 -605 75 -22 10 -104 58 -182 108 -78 50
-162 95 -186 102 -56 14 -105 67 -151 166 -59 125 -75 190 -101 422 l-25 221
-118 189 -118 188 -104 7 c-99 6 -503 78 -517 91 -12 12 274 341 480 553 l127
131 163 12 c316 22 403 32 537 60 159 34 222 38 241 15z m3555 -511 c-20 -354
-28 -530 -28 -623 1 -58 4 -365 7 -683 l7 -578 -94 3 -93 3 -39 95 -40 95 -7
275 c-5 198 -12 311 -27 405 -11 72 -25 198 -31 280 -5 83 -18 238 -27 346 -9
108 -13 214 -10 234 13 69 139 171 283 231 32 13 69 24 82 24 l23 0 -6 -107z
m-1552 51 c9 -8 16 -21 16 -28 0 -27 40 -48 111 -57 93 -13 110 -23 188 -101
51 -52 70 -81 96 -145 53 -131 73 -303 40 -350 -46 -66 -213 -90 -519 -73
-285 15 -326 22 -543 95 -107 36 -199 63 -204 60 -5 -3 -27 -1 -49 5 -50 13
-70 49 -70 124 0 94 32 160 119 246 98 97 165 130 333 164 70 14 137 26 150
26 13 1 59 12 103 25 96 29 205 33 229 9z m9288 -2114 c317 -761 516 -1618
564 -2424 l7 -118 -24 7 c-13 4 -82 33 -154 64 -105 46 -161 80 -294 175 -90
65 -170 120 -177 123 -12 4 -14 -49 -14 -324 0 -310 -2 -338 -26 -483 -34
-195 -37 -338 -10 -369 23 -25 63 -27 111 -4 46 22 53 15 98 -100 42 -104 81
-159 204 -290 51 -54 105 -119 120 -145 14 -26 41 -63 60 -82 l33 -36 -30
-172 c-71 -402 -164 -764 -295 -1152 -53 -155 -187 -502 -203 -526 -4 -5 -47
-25 -97 -43 -229 -85 -300 -147 -250 -217 13 -20 152 -94 174 -94 10 0 -74
-177 -132 -279 l-25 -43 5 104 c10 180 -26 249 -152 298 -33 13 -127 55 -210
94 l-150 70 -215 6 -215 6 -105 45 c-81 33 -145 72 -267 159 l-161 115 190
191 190 191 -144 120 c-128 107 -146 119 -162 107 -52 -38 -66 17 -77 311 -4
132 -15 296 -24 365 -8 69 -18 197 -21 285 -4 106 -12 186 -25 237 -25 102
-24 129 9 234 26 86 27 96 28 334 1 312 0 296 30 326 21 22 31 25 62 19 85
-16 276 -144 539 -362 133 -110 152 -123 180 -123 29 0 46 27 90 140 34 89 80
180 234 460 35 63 82 151 106 196 23 44 69 109 101 145 75 82 86 104 122 247
46 180 42 331 -16 600 l-27 123 24 16 c53 35 198 191 222 240 31 60 52 163 51
248 -2 173 -24 720 -35 855 -14 186 -17 464 -6 504 8 28 12 21 69 -100 33 -71
87 -194 120 -274z m-10371 -537 c82 -122 96 -150 139 -277 26 -78 112 -312
191 -521 111 -295 164 -455 239 -718 l97 -337 -31 -19 c-53 -32 -376 -211
-381 -211 -3 0 -5 40 -5 89 0 71 -4 93 -19 112 -92 119 -186 293 -221 409 -12
41 -51 136 -85 210 -71 152 -92 215 -105 321 -5 41 -16 115 -26 164 -13 70
-17 149 -18 355 -1 274 3 313 44 422 19 50 73 138 85 138 3 0 46 -61 96 -137z
m1834 -484 c28 -5 190 -13 360 -18 441 -13 485 -24 596 -150 88 -100 91 -101
273 -122 88 -11 215 -24 281 -30 271 -24 592 -104 871 -218 387 -157 514 -240
543 -356 7 -27 11 -158 11 -342 l0 -298 66 -220 c36 -121 85 -265 109 -321 24
-55 49 -130 54 -165 6 -35 11 -179 11 -320 l0 -257 79 -74 c86 -81 192 -141
269 -152 65 -10 115 -39 196 -116 l73 -70 49 -247 c33 -164 55 -254 67 -270
51 -64 187 8 247 131 33 66 55 161 64 271 l6 70 -66 50 c-103 79 -295 256
-336 310 -45 60 -102 166 -116 216 -9 32 -4 47 42 150 68 150 100 205 214 374
171 251 316 434 382 480 97 67 169 233 214 497 9 52 98 182 157 228 26 21 81
50 121 65 40 15 119 54 176 87 190 110 238 123 346 98 53 -12 82 -35 143 -114
64 -82 87 -143 122 -321 33 -167 43 -190 163 -393 108 -182 143 -221 224 -252
86 -31 141 -70 227 -159 l77 -79 0 -773 c0 -445 -4 -799 -10 -832 -19 -120
-65 -171 -150 -169 -69 1 -110 29 -176 118 -34 46 -71 83 -100 100 -55 32
-121 42 -148 21 -23 -17 -25 -12 64 -127 27 -36 69 -101 91 -145 23 -44 52
-94 66 -112 33 -45 135 -116 245 -169 93 -46 229 -132 281 -178 l27 -25 0
-383 1 -383 123 -97 124 -98 356 0 356 0 183 -91 c167 -83 446 -253 447 -272
0 -25 -261 -430 -398 -617 -113 -154 -127 -165 -207 -162 -87 4 -207 -23 -302
-69 -61 -29 -103 -59 -166 -119 -89 -84 -134 -145 -237 -323 -89 -154 -191
-286 -335 -436 -69 -72 -130 -142 -135 -156 -6 -15 -10 -67 -10 -117 0 -66 -4
-94 -14 -102 -1672 -1330 -3804 -1894 -5891 -1560 -1578 253 -3017 987 -4145
2114 -1602 1600 -2397 3833 -2170 6090 11 107 23 207 26 223 l6 27 41 -32 c81
-62 300 -284 359 -363 33 -43 74 -107 91 -141 l30 -62 -26 -213 c-62 -502 -81
-797 -81 -1284 0 -486 19 -738 80 -1060 48 -251 60 -283 339 -890 l264 -576
79 -84 c164 -173 342 -415 397 -540 14 -31 34 -90 46 -133 60 -226 212 -474
419 -683 120 -122 217 -193 313 -229 75 -28 130 -70 152 -116 11 -23 22 -78
26 -134 12 -138 16 -156 50 -190 17 -16 34 -30 38 -30 5 0 11 23 14 51 8 64
44 127 100 173 46 38 150 89 205 101 29 6 32 10 32 44 0 106 72 598 131 896
237 1191 637 2091 1164 2621 149 149 305 270 448 346 168 90 464 314 615 466
58 58 82 93 114 161 80 170 59 243 -81 285 -88 26 -307 22 -472 -9 -283 -54
-511 -69 -631 -44 -59 13 -122 49 -138 78 -6 12 -11 92 -12 183 -2 152 0 167
21 210 50 104 137 124 501 119 547 -9 612 -8 646 11 18 10 68 60 113 113 45
52 94 103 108 113 24 15 65 18 308 24 323 7 426 21 525 71 80 40 116 89 155
212 21 64 38 98 69 133 23 26 75 92 116 147 40 55 104 139 142 187 80 102 86
131 37 172 -42 36 -73 51 -177 87 -48 17 -193 84 -322 149 -129 66 -272 131
-318 145 -120 39 -211 116 -267 229 -25 50 -32 100 -17 123 9 14 50 32 72 32
8 0 38 -4 65 -10z"/>
<path d="M56158 13248 c-20 -29 -82 -125 -139 -213 -82 -129 -122 -179 -203
-260 -64 -63 -114 -123 -136 -162 -64 -114 -251 -417 -286 -462 -19 -24 -34
-52 -34 -62 0 -25 47 -77 89 -98 126 -65 394 -115 581 -109 138 4 190 20 244
74 41 42 61 91 101 260 20 82 56 217 80 301 l45 151 -1 199 0 198 -142 115
c-78 63 -146 116 -153 118 -6 2 -27 -21 -46 -50z"/>
<path d="M46533 10740 c-28 -12 -37 -31 -52 -109 -16 -80 -53 -175 -129 -328
-58 -116 -59 -121 -81 -281 l-23 -163 47 -307 c26 -169 49 -309 51 -311 7 -8
220 52 304 85 89 36 169 89 204 137 20 27 21 44 27 395 3 210 11 384 17 407 6
22 13 58 16 80 7 46 45 242 52 266 3 12 -13 24 -63 46 -150 67 -319 105 -370
83z"/>
<path d="M68172 21671 c-7 -25 -21 -95 -33 -156 -11 -60 -31 -159 -44 -220
-13 -60 -34 -198 -45 -305 -11 -107 -28 -231 -37 -275 -21 -108 -32 -333 -43
-890 -8 -478 -24 -943 -34 -1025 -9 -66 -31 -515 -81 -1620 -24 -542 -47
-1031 -51 -1087 l-6 -103 -2360 0 -2361 0 6 108 c3 59 27 772 54 1584 47 1454
47 1477 29 1530 -10 29 -28 69 -40 88 -12 19 -32 60 -45 90 -55 131 -306 507
-415 620 -45 47 -93 99 -107 115 -54 65 -226 198 -356 273 -196 114 -503 186
-694 162 -46 -5 -89 -10 -96 -10 -11 0 -13 -459 -13 -2395 0 -1317 -1 -2395
-2 -2396 -2 -1 -585 -25 -1296 -54 -711 -29 -1295 -55 -1298 -58 -5 -4 344
-1439 350 -1443 0 0 357 9 791 21 l790 22 354 102 c194 56 354 101 355 99 1
-2 25 -1042 54 -2312 43 -1946 53 -2311 65 -2325 8 -9 27 -41 42 -71 34 -68
139 -211 195 -265 23 -22 71 -74 106 -116 123 -147 226 -215 539 -352 209 -92
316 -117 501 -117 76 0 124 -4 124 -10 0 -24 40 -8 56 22 13 26 16 50 11 124
-4 79 -16 123 -83 325 -51 157 -105 293 -161 413 l-83 179 80 2121 c45 1167
83 2135 86 2152 l4 30 1042 104 1041 104 51 31 c66 40 254 90 431 115 77 12
181 27 230 36 58 9 197 17 390 20 299 6 301 6 915 -46 338 -28 615 -52 616
-53 0 -1 -23 -875 -52 -1942 -29 -1067 -50 -1947 -47 -1955 9 -20 20 -154 32
-400 5 -113 17 -275 26 -360 16 -150 31 -426 42 -750 4 -131 7 -158 23 -175
10 -11 28 -40 40 -65 13 -24 78 -110 145 -190 67 -80 149 -181 182 -225 113
-148 312 -325 434 -387 65 -33 90 -39 209 -53 279 -33 408 -79 606 -218 199
-140 223 -160 288 -242 17 -21 40 -42 53 -48 12 -5 25 -18 28 -27 3 -9 24 -29
46 -43 51 -33 113 -37 129 -8 6 11 10 88 10 178 0 163 -17 292 -58 458 -11 44
-39 175 -62 290 -48 245 -85 396 -143 590 l-42 140 -7 425 c-4 234 -12 643
-17 910 -6 267 -15 737 -22 1045 -15 740 -15 1675 -1 1895 27 410 31 469 41
540 13 87 71 570 106 881 14 119 32 245 40 280 22 92 85 606 85 697 0 42 9
135 20 206 19 121 20 180 20 957 0 541 3 830 10 834 6 3 10 16 10 29 0 12 15
47 33 77 31 53 60 157 88 322 7 41 12 203 13 400 2 475 -37 927 -115 1327 -34
179 -59 238 -136 325 -30 33 -84 103 -121 157 -93 134 -416 509 -564 655 -208
205 -418 377 -580 474 -78 47 -179 102 -224 121 l-80 35 -12 -46z"/>
<path d="M18298 21388 c14 -29 36 -67 49 -84 13 -17 34 -62 47 -100 13 -38 37
-97 54 -130 38 -75 107 -345 123 -477 25 -218 -50 -527 -171 -707 -49 -72
-130 -234 -180 -361 -22 -55 -52 -124 -67 -152 -14 -29 -36 -81 -48 -117 -13
-36 -48 -117 -78 -180 -104 -219 -333 -800 -477 -1210 -32 -91 -93 -262 -135
-380 -42 -118 -107 -305 -144 -415 -38 -110 -86 -236 -108 -280 -47 -94 -92
-228 -127 -375 -14 -58 -50 -172 -82 -255 -78 -208 -111 -304 -139 -416 -14
-53 -40 -132 -58 -175 -19 -44 -40 -104 -47 -134 -15 -64 -140 -511 -174 -620
-13 -41 -27 -101 -31 -134 -4 -32 -16 -79 -26 -104 -22 -51 -78 -297 -86 -379
-3 -29 -10 -53 -16 -53 -30 0 -3679 -241 -3724 -246 -62 -6 -66 9 46 -184 106
-182 157 -290 215 -458 54 -157 57 -194 19 -234 l-27 -28 83 0 c95 0 2836 86
3049 96 138 6 143 5 134 -12 -5 -11 -12 -42 -15 -70 -3 -28 -17 -75 -30 -105
-27 -59 -113 -323 -176 -545 -23 -78 -54 -177 -70 -220 -17 -44 -42 -126 -56
-184 -15 -57 -52 -176 -84 -265 -32 -88 -66 -200 -75 -250 -16 -82 -47 -184
-186 -620 -72 -225 -147 -481 -165 -565 -9 -41 -32 -127 -51 -191 -18 -63 -45
-165 -59 -225 -13 -60 -38 -148 -54 -196 -16 -48 -48 -171 -71 -275 -24 -103
-56 -222 -72 -263 -16 -42 -35 -119 -43 -175 -7 -55 -21 -122 -29 -150 -9 -27
-23 -91 -31 -141 -8 -50 -24 -117 -35 -149 -12 -36 -20 -85 -20 -129 0 -39 -5
-90 -10 -114 -12 -52 -6 -67 64 -142 28 -31 134 -152 236 -270 145 -168 221
-246 353 -361 200 -176 287 -230 396 -248 81 -13 95 -8 106 37 3 15 17 43 30
63 13 20 29 56 35 80 7 24 22 64 35 89 52 104 174 510 246 815 15 66 40 149
54 185 14 36 46 155 71 265 25 110 58 244 75 297 16 53 49 195 74 315 24 120
56 256 70 303 14 47 46 182 70 300 24 118 60 276 79 351 20 75 72 315 116 535
44 219 93 440 110 489 41 125 66 240 84 386 9 68 42 232 75 364 33 132 69 307
81 388 12 81 28 167 36 190 15 41 77 313 94 412 4 28 12 64 17 80 l9 30 1510
136 1509 136 230 101 230 100 8 -46 c4 -26 11 -69 16 -97 4 -27 18 -84 30
-125 12 -41 39 -165 61 -275 22 -110 48 -222 58 -250 11 -27 23 -77 27 -110 3
-33 35 -161 71 -285 35 -124 68 -259 75 -300 14 -96 40 -201 79 -315 30 -88
96 -343 140 -539 12 -55 36 -138 52 -185 16 -47 49 -175 73 -284 43 -190 67
-280 140 -507 18 -58 45 -155 59 -216 14 -61 51 -188 81 -282 30 -93 64 -214
75 -268 19 -93 176 -588 317 -999 36 -104 74 -226 85 -270 92 -378 524 -1454
686 -1709 14 -23 37 -68 51 -101 42 -98 88 -169 138 -216 52 -48 177 -105 516
-235 94 -37 227 -91 295 -121 68 -30 169 -68 225 -85 56 -17 147 -48 202 -70
120 -48 287 -100 410 -127 123 -27 416 -65 425 -54 4 4 51 65 104 135 54 71
101 128 105 128 4 0 94 9 201 20 107 11 198 20 202 20 4 0 8 15 8 34 0 19 4
37 9 40 5 3 12 18 15 33 4 16 11 46 17 68 11 44 24 109 39 195 10 53 18 118
40 292 6 46 15 117 20 158 5 41 14 152 20 245 5 94 14 190 19 215 16 74 13
668 -4 780 -9 56 -15 167 -15 270 0 115 -7 228 -20 330 -11 85 -20 200 -20
254 0 123 -35 458 -60 583 -11 51 -29 186 -40 300 -13 127 -48 357 -90 588
-37 209 -73 414 -80 455 -6 41 -27 136 -45 210 -19 74 -43 191 -55 260 -30
180 -142 660 -193 830 -25 80 -57 204 -72 275 -15 72 -49 207 -75 300 -27 94
-81 292 -121 440 -78 290 -73 254 -98 670 -5 88 -14 178 -20 200 -6 22 -11 60
-11 85 0 25 -13 117 -30 205 -16 88 -30 190 -30 226 0 39 -8 89 -20 123 -10
31 -33 154 -50 274 -22 151 -45 264 -75 372 -24 85 -47 182 -50 215 -10 92
-44 231 -81 330 -18 50 -52 170 -74 267 -44 191 -213 708 -275 843 -20 44 -54
137 -76 206 -21 70 -66 192 -99 270 -34 79 -100 239 -146 354 -137 337 -438
962 -575 1190 -39 66 -115 199 -169 295 -53 96 -115 205 -137 241 -23 36 -43
73 -44 82 -2 9 -454 336 -1004 727 -550 391 -1009 720 -1021 731 -11 11 -34
19 -53 19 -43 0 -184 27 -296 56 -49 12 -121 28 -160 34 -38 6 -171 33 -295
60 -353 77 -576 118 -696 129 -61 6 -201 28 -311 50 -115 24 -300 51 -434 66
-129 14 -285 32 -348 40 -63 8 -154 15 -201 15 l-87 0 25 -52z m1368 -2867
c38 -27 83 -64 100 -82 76 -82 253 -419 348 -662 29 -73 72 -220 112 -385 36
-147 80 -314 99 -372 18 -58 36 -141 40 -185 4 -44 20 -138 36 -210 66 -291
99 -469 119 -650 12 -104 30 -225 41 -268 11 -43 31 -169 44 -280 13 -111 32
-249 40 -307 9 -58 21 -163 26 -235 5 -71 14 -175 19 -230 6 -55 13 -144 16
-197 l6 -98 -1387 0 c-763 0 -1385 3 -1383 8 20 45 67 126 95 164 18 26 44 78
57 115 27 79 34 95 121 253 35 63 93 189 129 280 35 91 77 192 91 225 40 88
161 403 205 530 21 61 55 155 77 210 22 55 50 132 63 170 12 39 48 135 80 215
32 80 68 177 80 215 12 39 44 124 70 190 26 66 73 199 105 295 32 96 104 299
161 450 56 151 119 329 139 395 20 66 58 176 85 245 27 69 54 148 61 175 18
75 18 75 27 75 5 0 40 -22 78 -49z"/>
<path d="M39430 20705 c-7 -8 -23 -15 -36 -15 -12 0 -26 -4 -29 -10 -3 -5 -17
-10 -31 -10 -14 0 -42 -9 -64 -20 -22 -11 -51 -20 -64 -20 -36 0 -264 -79
-306 -106 -19 -13 -64 -31 -100 -40 -36 -10 -81 -28 -100 -40 -19 -13 -51 -26
-71 -29 -20 -4 -67 -24 -105 -46 -72 -41 -232 -120 -418 -208 -60 -28 -126
-65 -147 -82 -20 -16 -61 -39 -91 -51 -29 -12 -75 -39 -103 -59 -27 -21 -92
-60 -143 -87 -51 -28 -109 -64 -130 -80 -20 -16 -57 -41 -82 -55 -25 -14 -63
-45 -85 -67 -22 -23 -67 -58 -100 -77 -75 -45 -212 -151 -285 -219 -30 -28
-80 -67 -110 -86 -30 -20 -154 -136 -275 -260 -262 -267 -347 -360 -400 -443
-22 -34 -75 -107 -118 -161 -154 -195 -381 -585 -432 -744 -10 -30 -32 -84
-50 -120 -18 -36 -40 -90 -50 -120 -10 -30 -33 -85 -51 -121 -36 -73 -108
-311 -129 -429 -8 -41 -21 -97 -30 -125 -44 -142 -73 -457 -81 -902 l-6 -293
42 -357 c59 -510 140 -875 311 -1400 28 -84 54 -155 59 -158 6 -4 10 -18 10
-32 0 -14 8 -42 19 -62 20 -38 55 -138 100 -286 47 -152 175 -442 420 -950
191 -394 500 -918 704 -1190 33 -44 126 -148 206 -230 80 -83 162 -168 182
-190 19 -22 89 -87 154 -145 65 -58 152 -137 194 -176 42 -39 105 -91 141
-114 36 -24 94 -68 129 -98 35 -29 119 -90 185 -134 67 -44 153 -106 191 -138
80 -65 164 -122 250 -170 33 -18 87 -52 120 -74 63 -43 351 -206 557 -317 351
-188 889 -373 1268 -435 201 -33 226 -35 380 -30 298 9 362 18 482 63 58 23
126 44 150 48 54 9 162 77 197 126 15 20 35 54 45 77 l19 41 -34 77 c-24 53
-44 83 -66 98 -17 11 -39 33 -47 48 -9 14 -31 35 -49 46 -335 197 -408 238
-469 257 -29 9 -78 32 -109 50 -31 18 -114 52 -185 75 -71 24 -158 57 -194 75
-36 18 -108 45 -160 59 -52 15 -156 52 -230 81 -74 29 -209 76 -300 104 -233
71 -676 221 -796 269 -55 22 -118 44 -140 47 -21 4 -69 20 -106 36 -36 16 -72
29 -79 29 -16 0 -123 47 -264 116 -93 45 -144 81 -326 227 -286 230 -386 314
-495 416 -49 47 -129 121 -176 163 -91 82 -387 426 -526 611 -46 61 -97 126
-112 144 -16 18 -48 65 -71 105 -48 82 -172 365 -184 418 -4 19 -17 53 -28 75
-28 56 -36 93 -48 225 -5 63 -15 174 -21 245 -14 147 -15 412 -4 590 15 241
64 569 111 740 24 88 49 196 54 240 7 46 25 116 45 165 19 47 50 137 70 200
54 171 220 543 295 660 27 41 67 107 89 145 42 72 255 339 345 433 29 30 79
72 112 95 33 22 87 61 120 87 73 57 252 164 575 342 135 75 288 163 340 195
172 107 511 290 775 418 143 69 319 155 390 190 72 35 148 69 170 76 22 6 74
29 115 49 41 20 100 45 130 55 30 10 95 38 145 63 69 34 105 46 153 50 34 3
65 9 68 13 3 5 16 9 29 9 36 0 56 38 68 127 12 94 12 118 -1 253 -24 251 -87
498 -192 745 -37 88 -80 194 -95 235 -16 41 -52 112 -81 156 -29 45 -73 122
-97 170 -57 114 -145 228 -388 505 -153 175 -216 240 -290 297 -53 39 -100 72
-106 72 -6 0 -16 -7 -23 -15z"/>
<path d="M1015 4114 c-123 -22 -210 -50 -325 -106 -91 -45 -117 -64 -196 -143
-78 -78 -98 -104 -137 -185 -62 -130 -81 -223 -74 -364 8 -176 56 -291 171
-413 151 -162 306 -229 832 -362 436 -110 534 -147 639 -242 150 -138 161
-358 24 -530 -66 -83 -224 -164 -378 -193 -117 -22 -331 -21 -446 3 -226 46
-411 162 -498 312 -33 57 -74 175 -83 239 -10 78 0 75 -199 60 l-177 -13 6
-74 c20 -220 118 -435 266 -583 150 -150 367 -248 630 -285 146 -20 429 -20
546 0 354 62 604 235 728 507 50 108 66 187 66 320 0 307 -140 522 -435 671
-108 54 -259 100 -612 187 -346 86 -429 112 -537 168 -124 65 -182 168 -174
311 10 175 139 308 358 368 83 23 433 26 520 4 96 -23 215 -87 274 -146 77
-77 156 -250 156 -342 0 -28 3 -28 219 -11 l154 12 -7 66 c-25 276 -179 514
-416 643 -85 47 -251 101 -369 121 -120 20 -413 20 -526 0z"/>
<path d="M26495 4114 c-123 -22 -210 -50 -325 -106 -91 -45 -117 -64 -196
-143 -78 -78 -98 -104 -137 -185 -62 -130 -81 -223 -74 -364 8 -176 56 -291
171 -413 151 -162 306 -229 832 -362 436 -110 534 -147 639 -242 150 -138 161
-358 24 -530 -66 -83 -224 -164 -378 -193 -117 -22 -331 -21 -446 3 -226 46
-411 162 -498 312 -33 57 -74 175 -83 239 -10 78 0 75 -199 60 l-177 -13 6
-74 c20 -220 118 -435 266 -583 150 -150 367 -248 630 -285 146 -20 429 -20
546 0 354 62 604 235 728 507 50 108 66 187 66 320 0 307 -140 522 -435 671
-108 54 -259 100 -612 187 -346 86 -429 112 -537 168 -124 65 -182 168 -174
311 10 175 139 308 358 368 83 23 433 26 520 4 96 -23 215 -87 274 -146 77
-77 156 -250 156 -342 0 -28 3 -28 219 -11 l154 12 -7 66 c-25 276 -179 514
-416 643 -85 47 -251 101 -369 121 -120 20 -413 20 -526 0z"/>
<path d="M42278 4115 c-84 -21 -155 -60 -218 -121 -112 -107 -140 -203 -140
-491 l0 -193 -155 0 -155 0 0 -135 0 -135 155 0 155 0 0 -885 0 -885 175 0
175 0 0 885 0 885 195 0 195 0 0 135 0 135 -196 0 -196 0 3 163 c4 149 6 166
29 212 48 97 114 120 318 112 78 -3 142 -3 142 -1 0 2 11 68 25 146 14 78 25
146 25 149 0 31 -430 50 -532 24z"/>
<path d="M12880 2675 l0 -1405 180 0 180 0 0 618 c0 355 5 647 10 687 25 173
91 289 211 370 107 73 167 90 319 90 119 0 128 -1 190 -31 111 -53 174 -136
205 -266 12 -52 15 -181 15 -765 l0 -703 180 0 180 0 0 698 c0 842 -6 919 -89
1077 -67 130 -189 223 -361 277 -67 21 -94 23 -255 23 -169 0 -185 -2 -260
-27 -104 -36 -192 -88 -276 -166 l-69 -64 0 496 0 496 -180 0 -180 0 0 -1405z"/>
<path d="M19420 3880 l0 -200 175 0 175 0 0 200 0 200 -175 0 -175 0 0 -200z"/>
<path d="M47540 2675 l0 -1405 605 0 c655 0 735 5 913 56 97 28 229 87 297
134 165 114 314 316 400 546 143 379 150 909 19 1303 -129 388 -394 648 -746
731 -150 35 -250 40 -875 40 l-613 0 0 -1405z m1080 1065 c297 -14 415 -52
549 -176 150 -139 240 -312 282 -544 22 -120 19 -548 -5 -675 -48 -256 -155
-469 -290 -576 -170 -136 -358 -168 -973 -169 l-263 0 0 1075 0 1075 258 0
c141 -1 340 -5 442 -10z"/>
<path d="M56630 2675 l0 -1405 175 0 175 0 0 1405 0 1405 -175 0 -175 0 0
-1405z"/>
<path d="M3095 3921 l-160 -97 -3 -257 -2 -257 -130 0 -130 0 0 -135 0 -135
130 0 130 0 0 -699 c0 -440 4 -729 11 -778 23 -173 117 -279 279 -317 114 -27
458 -12 454 19 -1 6 -12 76 -25 158 l-23 147 -116 0 c-128 0 -158 11 -204 73
-21 28 -21 36 -24 713 l-3 684 176 0 175 0 0 135 0 135 -175 0 -175 0 0 355
c0 278 -3 355 -12 354 -7 0 -85 -44 -173 -98z"/>
<path d="M12025 3921 l-160 -97 -3 -257 -2 -257 -130 0 -130 0 0 -135 0 -135
130 0 130 0 0 -699 c0 -440 4 -729 11 -778 23 -173 117 -279 279 -317 114 -27
458 -12 454 19 -1 6 -12 76 -25 158 l-23 147 -116 0 c-128 0 -158 11 -204 73
-21 28 -21 36 -24 713 l-3 684 176 0 175 0 0 135 0 135 -175 0 -175 0 0 355
c0 278 -3 355 -12 354 -7 0 -85 -44 -173 -98z"/>
<path d="M32495 3921 l-160 -97 -3 -257 -2 -257 -130 0 -130 0 0 -135 0 -135
130 0 130 0 0 -699 c0 -440 4 -729 11 -778 23 -173 117 -279 279 -317 114 -27
458 -12 454 19 -1 6 -12 76 -25 158 l-23 147 -116 0 c-128 0 -158 11 -204 73
-21 28 -21 36 -24 713 l-3 684 176 0 175 0 0 135 0 135 -175 0 -175 0 0 355
c0 278 -3 355 -12 354 -7 0 -85 -44 -173 -98z"/>
<path d="M69715 3921 l-160 -97 -3 -257 -2 -257 -130 0 -130 0 0 -135 0 -135
130 0 130 0 0 -699 c0 -440 4 -729 11 -778 23 -173 117 -279 279 -317 114 -27
458 -12 454 19 -1 6 -12 76 -25 158 l-23 147 -116 0 c-128 0 -158 11 -204 73
-21 28 -21 36 -24 713 l-3 684 176 0 175 0 0 135 0 135 -175 0 -175 0 0 355
c0 278 -3 355 -12 354 -7 0 -85 -44 -173 -98z"/>
<path d="M4557 3326 c-100 -42 -168 -109 -251 -249 l-36 -62 0 148 0 147 -160
0 -160 0 0 -1020 0 -1020 175 0 175 0 0 533 c0 292 5 585 11 650 13 153 49
296 93 367 39 63 111 123 175 145 70 24 183 19 266 -11 39 -13 77 -27 85 -30
12 -4 29 31 73 151 32 86 56 162 54 170 -3 7 -30 24 -59 38 -107 50 -149 60
-268 64 -104 3 -121 1 -173 -21z"/>
<path d="M5870 3335 c-257 -57 -468 -213 -594 -438 -136 -243 -176 -666 -95
-992 28 -111 104 -266 175 -355 107 -133 277 -242 459 -292 71 -20 104 -22
295 -22 191 0 224 2 295 22 283 78 487 274 586 559 10 31 19 61 19 68 0 10
-288 56 -345 55 -15 0 -29 -20 -59 -86 -82 -178 -203 -288 -357 -323 -64 -15
-226 -13 -288 4 -176 46 -323 181 -391 358 -32 82 -60 207 -60 267 l0 40 755
0 755 0 0 116 c0 454 -184 793 -515 950 -141 67 -186 76 -390 80 -132 3 -197
0 -245 -11z m375 -290 c82 -22 149 -60 222 -129 96 -89 146 -201 178 -398 l6
-38 -564 0 -564 0 9 66 c33 241 197 441 409 498 72 20 230 20 304 1z"/>
<path d="M8194 3335 c-149 -32 -300 -123 -395 -237 l-49 -59 0 135 0 136 -160
0 -160 0 0 -1020 0 -1020 180 0 179 0 4 658 c3 595 5 664 21 727 39 147 96
233 203 301 162 105 401 114 546 22 98 -63 146 -146 166 -292 7 -49 11 -323
11 -747 l0 -669 180 0 180 0 0 618 c-1 910 -8 1005 -93 1167 -69 129 -216 231
-397 275 -101 24 -318 27 -416 5z"/>
<path d="M10181 3339 c-216 -42 -414 -182 -529 -372 -164 -272 -216 -687 -127
-1017 53 -195 180 -406 309 -511 72 -59 195 -122 286 -146 50 -14 104 -18 240
-18 166 0 179 2 255 28 99 35 183 86 254 152 l54 50 -6 -180 c-4 -143 -9 -193
-26 -246 -46 -144 -144 -247 -283 -297 -61 -21 -95 -26 -209 -30 -77 -2 -158
0 -186 6 -177 38 -269 118 -307 265 l-13 52 -139 22 c-77 12 -154 22 -173 22
l-34 1 6 -87 c11 -152 54 -259 141 -351 97 -104 239 -178 411 -213 131 -27
381 -26 518 2 319 65 545 265 612 543 41 171 44 258 45 1299 l0 997 -160 0
-160 0 0 -116 0 -116 -79 74 c-93 87 -202 149 -317 178 -83 22 -295 26 -383 9z
m362 -309 c182 -56 323 -221 377 -440 40 -162 38 -427 -5 -596 -50 -195 -190
-351 -363 -404 -71 -22 -206 -27 -281 -9 -130 30 -279 153 -339 280 -61 128
-77 219 -77 449 0 240 13 313 77 443 68 135 188 240 323 283 64 20 212 17 288
-6z"/>
<path d="M15680 3335 c-257 -57 -468 -213 -594 -438 -136 -243 -176 -666 -95
-992 28 -111 104 -266 175 -355 107 -133 277 -242 459 -292 71 -20 104 -22
295 -22 191 0 224 2 295 22 283 78 487 274 586 559 10 31 19 61 19 68 0 10
-288 56 -345 55 -15 0 -29 -20 -59 -86 -82 -178 -203 -288 -357 -323 -64 -15
-226 -13 -288 4 -176 46 -323 181 -391 358 -32 82 -60 207 -60 267 l0 40 755
0 755 0 0 116 c0 454 -184 793 -515 950 -141 67 -186 76 -390 80 -132 3 -197
0 -245 -11z m375 -290 c82 -22 149 -60 222 -129 96 -89 146 -201 178 -398 l6
-38 -564 0 -564 0 9 66 c33 241 197 441 409 498 72 20 230 20 304 1z"/>
<path d="M17994 3335 c-149 -32 -300 -123 -395 -237 l-49 -59 0 135 0 136
-160 0 -160 0 0 -1020 0 -1020 180 0 179 0 4 658 c3 595 5 664 21 727 39 147
96 233 203 301 162 105 401 114 546 22 98 -63 146 -146 166 -292 7 -49 11
-323 11 -747 l0 -669 180 0 180 0 0 618 c-1 910 -8 1005 -93 1167 -69 129
-216 231 -397 275 -101 24 -318 27 -416 5z"/>
<path d="M21044 3335 c-149 -32 -300 -123 -395 -237 l-49 -59 0 135 0 136
-160 0 -160 0 0 -1020 0 -1020 180 0 179 0 4 658 c3 595 5 664 21 727 39 147
96 233 203 301 162 105 401 114 546 22 98 -63 146 -146 166 -292 7 -49 11
-323 11 -747 l0 -669 180 0 180 0 0 618 c-1 910 -8 1005 -93 1167 -69 129
-216 231 -397 275 -101 24 -318 27 -416 5z"/>
<path d="M23031 3339 c-216 -42 -414 -182 -529 -372 -164 -272 -216 -687 -127
-1017 53 -195 180 -406 309 -511 72 -59 195 -122 286 -146 50 -14 104 -18 240
-18 166 0 179 2 255 28 99 35 183 86 254 152 l54 50 -6 -180 c-4 -143 -9 -193
-26 -246 -46 -144 -144 -247 -283 -297 -61 -21 -95 -26 -209 -30 -77 -2 -158
0 -186 6 -177 38 -269 118 -307 265 l-13 52 -139 22 c-77 12 -154 22 -173 22
l-34 1 6 -87 c11 -152 54 -259 141 -351 97 -104 239 -178 411 -213 131 -27
381 -26 518 2 319 65 545 265 612 543 41 171 44 258 45 1299 l0 997 -160 0
-160 0 0 -116 0 -116 -79 74 c-93 87 -202 149 -317 178 -83 22 -295 26 -383 9z
m362 -309 c182 -56 323 -221 377 -440 40 -162 38 -427 -5 -596 -50 -195 -190
-351 -363 -404 -71 -22 -206 -27 -281 -9 -130 30 -279 153 -339 280 -61 128
-77 219 -77 449 0 240 13 313 77 443 68 135 188 240 323 283 64 20 212 17 288
-6z"/>
<path d="M30760 3336 c-237 -50 -396 -159 -481 -330 -73 -149 -75 -328 -4
-473 93 -190 226 -259 774 -403 245 -64 337 -99 384 -146 93 -93 86 -228 -18
-343 -75 -83 -193 -121 -375 -121 -129 0 -214 17 -291 56 -105 53 -191 170
-219 297 -16 68 1 65 -209 35 l-153 -22 6 -44 c9 -66 59 -204 97 -270 19 -31
68 -91 110 -134 90 -90 190 -143 334 -180 80 -20 114 -23 310 -23 197 0 229 3
305 23 246 66 422 213 500 417 35 90 40 268 11 363 -37 121 -115 218 -231 285
-63 36 -274 107 -534 178 -315 87 -370 106 -418 142 -157 120 -96 329 115 393
90 28 349 27 423 0 114 -42 190 -123 225 -238 15 -48 26 -68 37 -68 10 0 88
10 175 22 l157 23 -6 35 c-25 136 -86 263 -163 341 -69 68 -203 137 -331 170
-109 28 -426 36 -530 15z"/>
<path d="M33960 3335 c-257 -57 -468 -213 -594 -438 -136 -243 -176 -666 -95
-992 28 -111 104 -266 175 -355 107 -133 277 -242 459 -292 71 -20 104 -22
295 -22 191 0 224 2 295 22 283 78 487 274 586 559 10 31 19 61 19 68 0 10
-288 56 -345 55 -15 0 -29 -20 -59 -86 -82 -178 -203 -288 -357 -323 -64 -15
-226 -13 -288 4 -176 46 -323 181 -391 358 -32 82 -60 207 -60 267 l0 40 755
0 755 0 0 116 c0 454 -184 793 -515 950 -141 67 -186 76 -390 80 -132 3 -197
0 -245 -11z m375 -290 c82 -22 149 -60 222 -129 96 -89 146 -201 178 -398 l6
-38 -564 0 -564 0 9 66 c33 241 197 441 409 498 72 20 230 20 304 1z"/>
<path d="M36252 3330 c-136 -36 -280 -129 -369 -238 l-43 -53 0 136 0 135
-160 0 -160 0 0 -1020 0 -1020 179 0 180 0 4 653 c4 716 4 721 67 855 40 87
79 133 151 181 156 104 379 111 503 16 47 -35 102 -149 116 -235 6 -39 10
-343 10 -767 l0 -703 180 0 180 0 0 649 c0 724 2 749 65 878 44 89 112 152
215 202 73 35 78 36 195 36 109 0 125 -2 177 -27 74 -34 132 -95 158 -166 32
-86 39 -248 40 -944 l0 -628 175 0 175 0 0 720 c0 441 -4 759 -11 818 -31 288
-168 459 -417 523 -107 27 -300 27 -400 -1 -144 -40 -276 -126 -371 -242 -30
-37 -58 -68 -61 -68 -3 0 -18 26 -35 58 -62 122 -197 221 -346 257 -94 22
-304 19 -397 -5z"/>
<path d="M39250 3336 c-237 -50 -396 -159 -481 -330 -73 -149 -75 -328 -4
-473 93 -190 226 -259 774 -403 245 -64 337 -99 384 -146 93 -93 86 -228 -18
-343 -75 -83 -193 -121 -375 -121 -129 0 -214 17 -291 56 -105 53 -191 170
-219 297 -16 68 1 65 -209 35 l-153 -22 6 -44 c9 -66 59 -204 97 -270 19 -31
68 -91 110 -134 90 -90 190 -143 334 -180 80 -20 114 -23 310 -23 197 0 229 3
305 23 246 66 422 213 500 417 35 90 40 268 11 363 -37 121 -115 218 -231 285
-63 36 -274 107 -534 178 -315 87 -370 106 -418 142 -157 120 -96 329 115 393
90 28 349 27 423 0 114 -42 190 -123 225 -238 15 -48 26 -68 37 -68 10 0 88
10 175 22 l157 23 -6 35 c-25 136 -86 263 -163 341 -69 68 -203 137 -331 170
-109 28 -426 36 -530 15z"/>
<path d="M43531 3335 c-150 -33 -282 -95 -398 -187 -166 -132 -277 -338 -318
-588 -20 -129 -20 -416 1 -541 67 -398 295 -662 656 -761 73 -20 106 -23 278
-23 174 0 204 2 275 23 301 87 520 284 613 552 81 232 95 613 31 856 -92 353
-353 603 -698 668 -104 20 -349 20 -440 1z m368 -300 c92 -24 162 -66 242
-145 123 -121 183 -268 199 -489 9 -132 -4 -313 -30 -417 -33 -129 -82 -218
-169 -304 -117 -116 -222 -160 -386 -160 -163 0 -284 49 -395 160 -126 125
-186 294 -197 545 -9 219 16 367 89 515 69 142 203 255 349 294 70 19 229 20
298 1z"/>
<path d="M45707 3326 c-100 -42 -168 -109 -251 -249 l-36 -62 0 148 0 147
-160 0 -160 0 0 -1020 0 -1020 175 0 175 0 0 533 c0 292 5 585 11 650 13 153
49 296 93 367 39 63 111 123 175 145 70 24 183 19 266 -11 39 -13 77 -27 85
-30 12 -4 29 31 73 151 32 86 56 162 54 170 -3 7 -30 24 -59 38 -107 50 -149
60 -268 64 -104 3 -121 1 -173 -21z"/>
<path d="M50940 3335 c-257 -57 -468 -213 -594 -438 -136 -243 -176 -666 -95
-992 28 -111 104 -266 175 -355 107 -133 277 -242 459 -292 71 -20 104 -22
295 -22 191 0 224 2 295 22 283 78 487 274 586 559 10 31 19 61 19 68 0 10
-288 56 -345 55 -15 0 -29 -20 -59 -86 -82 -178 -203 -288 -357 -323 -64 -15
-226 -13 -288 4 -176 46 -323 181 -391 358 -32 82 -60 207 -60 267 l0 40 755
0 755 0 0 116 c0 454 -184 793 -515 950 -141 67 -186 76 -390 80 -132 3 -197
0 -245 -11z m375 -290 c82 -22 149 -60 222 -129 96 -89 146 -201 178 -398 l6
-38 -564 0 -564 0 9 66 c33 241 197 441 409 498 72 20 230 20 304 1z"/>
<path d="M55080 3335 c-257 -57 -468 -213 -594 -438 -136 -243 -176 -666 -95
-992 28 -111 104 -266 175 -355 107 -133 277 -242 459 -292 71 -20 104 -22
295 -22 191 0 224 2 295 22 283 78 487 274 586 559 10 31 19 61 19 68 0 10
-288 56 -345 55 -15 0 -29 -20 -59 -86 -82 -178 -203 -288 -357 -323 -64 -15
-226 -13 -288 4 -176 46 -323 181 -391 358 -32 82 -60 207 -60 267 l0 40 755
0 755 0 0 116 c0 454 -184 793 -515 950 -141 67 -186 76 -390 80 -132 3 -197
0 -245 -11z m375 -290 c82 -22 149 -60 222 -129 96 -89 146 -201 178 -398 l6
-38 -564 0 -564 0 9 66 c33 241 197 441 409 498 72 20 230 20 304 1z"/>
<path d="M58111 3335 c-150 -33 -282 -95 -398 -187 -166 -132 -277 -338 -318
-588 -20 -129 -20 -416 1 -541 67 -398 295 -662 656 -761 73 -20 106 -23 278
-23 174 0 204 2 275 23 301 87 520 284 613 552 81 232 95 613 31 856 -92 353
-353 603 -698 668 -104 20 -349 20 -440 1z m368 -300 c92 -24 162 -66 242
-145 123 -121 183 -268 199 -489 9 -132 -4 -313 -30 -417 -33 -129 -82 -218
-169 -304 -117 -116 -222 -160 -386 -160 -163 0 -284 49 -395 160 -126 125
-186 294 -197 545 -9 219 16 367 89 515 69 142 203 255 349 294 70 19 229 20
298 1z"/>
<path d="M60400 3335 c-127 -32 -238 -101 -334 -206 l-56 -62 0 121 0 122
-165 0 -165 0 0 -1410 0 -1410 180 0 180 0 0 486 0 486 66 -60 c76 -70 195
-135 285 -157 95 -22 277 -20 375 5 105 26 264 106 344 173 379 313 465 1066
178 1555 -18 31 -73 98 -123 147 -98 99 -186 153 -320 195 -90 29 -356 38
-445 15z m355 -309 c247 -122 368 -427 335 -840 -21 -247 -75 -390 -194 -512
-103 -104 -193 -147 -324 -152 -116 -5 -198 15 -280 67 -120 78 -208 208 -254
376 -20 72 -22 104 -22 310 0 206 2 238 22 310 40 144 92 238 185 330 125 125
197 156 353 152 94 -2 106 -5 179 -41z"/>
<path d="M62592 3330 c-136 -36 -280 -129 -369 -238 l-43 -53 0 136 0 135
-160 0 -160 0 0 -1020 0 -1020 179 0 180 0 4 653 c4 716 4 721 67 855 40 87
79 133 151 181 156 104 379 111 503 16 47 -35 102 -149 116 -235 6 -39 10
-343 10 -767 l0 -703 180 0 180 0 0 649 c0 724 2 749 65 878 44 89 112 152
215 202 73 35 78 36 195 36 109 0 125 -2 177 -27 74 -34 132 -95 158 -166 32
-86 39 -248 40 -944 l0 -628 175 0 175 0 0 720 c0 441 -4 759 -11 818 -31 288
-168 459 -417 523 -107 27 -300 27 -400 -1 -144 -40 -276 -126 -371 -242 -30
-37 -58 -68 -61 -68 -3 0 -18 26 -35 58 -62 122 -197 221 -346 257 -94 22
-304 19 -397 -5z"/>
<path d="M65740 3335 c-257 -57 -468 -213 -594 -438 -136 -243 -176 -666 -95
-992 28 -111 104 -266 175 -355 107 -133 277 -242 459 -292 71 -20 104 -22
295 -22 191 0 224 2 295 22 283 78 487 274 586 559 10 31 19 61 19 68 0 10
-288 56 -345 55 -15 0 -29 -20 -59 -86 -82 -178 -203 -288 -357 -323 -64 -15
-226 -13 -288 4 -176 46 -323 181 -391 358 -32 82 -60 207 -60 267 l0 40 755
0 755 0 0 116 c0 454 -184 793 -515 950 -141 67 -186 76 -390 80 -132 3 -197
0 -245 -11z m375 -290 c82 -22 149 -60 222 -129 96 -89 146 -201 178 -398 l6
-38 -564 0 -564 0 9 66 c33 241 197 441 409 498 72 20 230 20 304 1z"/>
<path d="M68064 3335 c-149 -32 -300 -123 -395 -237 l-49 -59 0 135 0 136
-160 0 -160 0 0 -1020 0 -1020 180 0 179 0 4 658 c3 595 5 664 21 727 39 147
96 233 203 301 162 105 401 114 546 22 98 -63 146 -146 166 -292 7 -49 11
-323 11 -747 l0 -669 180 0 180 0 0 618 c-1 910 -8 1005 -93 1167 -69 129
-216 231 -397 275 -101 24 -318 27 -416 5z"/>
<path d="M19420 2290 l0 -1020 175 0 175 0 0 1020 0 1020 -175 0 -175 0 0
-1020z"/>
<path d="M28156 3288 c3 -12 175 -468 381 -1012 206 -545 375 -998 375 -1006
3 -28 -105 -302 -136 -349 -34 -51 -108 -105 -164 -121 -52 -14 -196 -12 -264
4 -40 9 -58 10 -58 3 0 -14 29 -250 36 -294 4 -30 8 -32 74 -47 84 -19 237
-21 305 -2 147 39 258 138 354 318 63 116 143 323 561 1448 216 580 395 1061
397 1068 4 9 -35 12 -174 12 l-179 0 -222 -607 c-254 -695 -260 -713 -311
-887 l-38 -128 -28 98 c-37 132 -117 364 -344 994 l-188 525 -192 3 -192 2 7
-22z"/>
<path d="M52300 3303 c0 -5 172 -464 382 -1021 l383 -1012 169 2 169 3 383
1015 c211 558 384 1016 384 1018 0 1 -83 2 -183 2 l-184 0 -245 -677 c-135
-373 -263 -731 -284 -795 -21 -65 -41 -118 -44 -118 -3 0 -24 62 -47 138 -23
75 -148 432 -277 792 l-234 655 -186 3 c-102 1 -186 -1 -186 -5z"/>
</g>
</svg>
